<svg id="Layer_1" data-name="Layer 1" xmlns="http://www.w3.org/2000/svg" viewBox="0 0 16 16"><defs><style>.cls-1{fill:#bfe1dd;}</style></defs><title>ID requirements</title><rect class="cls-1" x="0.92843" y="4.8886" width="9.50213" height="7.23056"/><path d="M4.71045,5.34863v.26123A1.102,1.102,0,0,0,5.81152,6.71094h.0083A1.102,1.102,0,0,0,6.9209,5.60986V5.34863a1.10523,1.10523,0,0,0-2.21045,0Zm1.91064,0v.26123a.80208.80208,0,0,1-.80127.80127h-.0083a.80208.80208,0,0,1-.80127-.80127V5.34863a.80543.80543,0,0,1,1.61084,0Zm6.39551-1.707h-.36523V3.3418h.666V7.22559H13.0166Zm-8.502,6.56348H9.17773V9.9043H7.939V8.541A1.79921,1.79921,0,0,0,6.1416,6.74365H5.48975A1.79922,1.79922,0,0,0,3.69238,8.541V9.9043H2.9082V3.6416h7.042V3.3418H2.6084v6.86328H4.51465ZM3.99219,8.541A1.49934,1.49934,0,0,1,5.48975,7.04346H6.1416A1.49934,1.49934,0,0,1,7.63916,8.541V9.9043H7.1167V8.04785H6.81689V9.9043H4.81445V8.04785h-.2998V9.9043H3.99219ZM9.90137,5.03857H8.689v-.2998H9.90137ZM8.689,5.71631H9.90137v.2998H8.689Zm3.2417,1.27734H8.689v-.2998h3.2417ZM8.689,7.67139H9.97852v.2998H8.689ZM1.88135,10.99023H9.18848V11.291H1.58154V4.5293h.58252v.2998H1.88135Zm10.563-3.31884a2.69263,2.69263,0,1,0,2.69238,2.69287A2.696,2.696,0,0,0,12.44434,7.67139Zm0,5.08447a2.39234,2.39234,0,1,1,2.3916-2.3916A2.39437,2.39437,0,0,1,12.44434,12.75586ZM13.76855,9.165l.24024.17969-1.74512,2.33984L10.9082,10.63379l.1836-.23633,1.11328.86328ZM12.3252,6.458V2.72461H10.28027V6.458l1.02246-.86133Zm-1.74415-3.4336h1.44336V5.8125l-.72168-.6084-.72168.6084Z"/></svg>