<svg id="Layer_1" data-name="Layer 1" xmlns="http://www.w3.org/2000/svg" viewBox="0 0 16 16"><defs><style>.cls-1{fill:#bfe1dd;}</style></defs><title>Marginalised Access</title><rect class="cls-1" x="5.07251" y="3.05922" width="2.89362" height="3.59942" rx="1.44681"/><path class="cls-1" d="M6.218,6.85106h.45485A2.96029,2.96029,0,0,1,9.63312,9.81135v3.64224a0,0,0,0,1,0,0H3.2577a0,0,0,0,1,0,0V9.81135A2.96029,2.96029,0,0,1,6.218,6.85106Z"/><polygon points="8.032 13.25 7.141 14.146 6.443 13.452 7.333 12.555 7.121 12.344 6.23 13.24 5.647 12.66 5.435 12.873 7.725 15.15 7.937 14.937 7.354 14.358 8.245 13.461 8.032 13.25"/><path d="M13.89453,6.90088l-.21289-.21143L12.251,8.129l-1.546.38171L7.38324,11.85193l-.46869-.46619-.21191.21289L8.9917,13.875l.21143-.21289-.46741-.46491L12.0293,9.88574l.02929-.02832.377-1.4884ZM11.78711,9.70312,8.52325,12.98584l-.92755-.92255.523-.52569.62451.62451.21192-.21289-.62457-.62457.361-.363.33972.34009.21289-.21289-.3407-.34027.36109-.363.62707.62708.21289-.2129-.62768-.62768.3609-.36273.343.343.21289-.21289L10.05,9.59589l.80939-.81366,1.23925-.30664Z"/><path d="M6.14453,12.13867v-.30078h-.667v-.92871h1.915V10.6084h-1.915V9.42187H8.68408V9.12109H5.47754V8.59961H5.17773v.52148H4.13214A2.59846,2.59846,0,0,1,4.5675,7.93457H9.91315a2.5895,2.5895,0,0,1,.21869.3208l.26953-.13281A2.90157,2.90157,0,0,0,7.78613,6.50049H6.7207A2.90355,2.90355,0,0,0,4.428,7.63477H4.42432v.00451A2.88926,2.88926,0,0,0,3.80225,9.419v2.71972H6.14453Zm-.9668-1.53027H4.10205V9.42187H5.17773Zm1.543-3.80811H7.78613a2.60015,2.60015,0,0,1,1.915.83448H4.81494A2.60446,2.60446,0,0,1,6.7207,6.80029Zm-2.61865,5.0376v-.92871H5.17773v.92871Z"/><path d="M7.25342,6.23828A1.75,1.75,0,0,0,9.002,4.49072V4.03418a1.748,1.748,0,1,0-3.49609,0v.45654A1.7492,1.7492,0,0,0,7.25342,6.23828ZM5.80566,4.03418a1.448,1.448,0,1,1,2.896,0v.45654a1.448,1.448,0,0,1-2.896,0Z"/></svg>