<svg id="Layer_1" data-name="Layer 1" xmlns="http://www.w3.org/2000/svg" viewBox="0 0 16 16"><defs><style>.cls-1{fill:#bfe1dd;}.cls-2{fill:#231f20;}</style></defs><title>Privacy</title><rect class="cls-1" x="5.02076" y="2.31631" width="2.89362" height="3.59942" rx="1.44681"/><path class="cls-1" d="M6.16623,6.10816h.45485A2.96029,2.96029,0,0,1,9.58136,9.06844v3.64224a0,0,0,0,1,0,0H3.20594a0,0,0,0,1,0,0V9.06844A2.96029,2.96029,0,0,1,6.16623,6.10816Z"/><path class="cls-2" d="M5.75391,11.20142h.14892v.30078H3.56055V8.782A2.92159,2.92159,0,0,1,6.479,5.86353H7.54443a2.894,2.894,0,0,1,1.13037.22705l-.11621.27636a2.59819,2.59819,0,0,0-1.01416-.20361H6.479A2.62172,2.62172,0,0,0,3.86035,8.782v2.41944H4.936V7.96265h.2998v3.23877ZM5.26416,3.85376V3.39722a1.74781,1.74781,0,1,1,3.49561,0v.45654a1.74781,1.74781,0,0,1-3.49561,0Zm.2998,0a1.448,1.448,0,0,0,2.896,0V3.39722a1.448,1.448,0,1,0-2.896,0ZM12.85938,7.448v2.95361c0,2.67871-3.14649,3.87988-3.28028,3.92969l-.05273.01953-.05274-.01953c-.13379-.04981-3.27929-1.251-3.27929-3.92969V7.448h.1499A4.1101,4.1101,0,0,0,9.4043,5.865l.12207-.16943.12207.16943A4.10916,4.10916,0,0,0,12.709,7.448Zm-.30079.29687A4.32535,4.32535,0,0,1,9.52637,6.1936,4.32193,4.32193,0,0,1,6.49414,7.74487v2.65674c0,2.29,2.626,3.46,3.03223,3.62793.40625-.168,3.03222-1.33789,3.03222-3.62793ZM9.52637,7.71362a.911.911,0,0,1,.91015.90967v.623h.05762a.57973.57973,0,0,1,.5791.5791V11.759a.58056.58056,0,0,1-.5791.58008H8.55957A.58015.58015,0,0,1,7.981,11.759V9.82544a.57931.57931,0,0,1,.57861-.5791h.05762v-.623A.91076.91076,0,0,1,9.52637,7.71362Zm.91015,1.8335H8.55957a.27893.27893,0,0,0-.27881.27832V11.759a.27914.27914,0,0,0,.27881.2793h1.93457a.279.279,0,0,0,.27832-.2793V9.82544a.27882.27882,0,0,0-.27832-.27832ZM9.52637,8.01343a.61027.61027,0,0,0-.60938.60986v.623h1.21875v-.623A.61026.61026,0,0,0,9.52637,8.01343ZM9.0752,10.9729a.64749.64749,0,0,1-.21631-.47949.66773.66773,0,1,1,1.33545,0,.64723.64723,0,0,1-.21582.47949v.63867H9.0752Zm.084-.47949a.35685.35685,0,0,0,.15527.28808l.06153.04493v.48437h.30175v-.48437l.06153-.04493a.35729.35729,0,0,0,.15429-.28808.36719.36719,0,1,0-.73437,0Z"/></svg>