<svg id="Layer_1" data-name="Layer 1" xmlns="http://www.w3.org/2000/svg" viewBox="0 0 16 16"><defs><style>.cls-1{fill:#bfe1dd;}.cls-2{fill:#231f20;}</style></defs><title>Policy Transparency</title><rect class="cls-1" x="2.64826" y="4.40605" width="7.16661" height="9.28911"/><path class="cls-2" d="M14.01233,11.97348c-.05469-.07617-1.34278-1.84863-2.9795-1.84863-1.63574,0-2.92431,1.77246-2.97851,1.84863l-.0625.08692.0625.08691c.0542.07617,1.34277,1.84863,2.97851,1.84863,1.63672,0,2.92481-1.77246,2.9795-1.84863l.0625-.08691Zm-2.9795,1.72168A4.01122,4.01122,0,0,1,8.36535,12.0604a4.01119,4.01119,0,0,1,2.66748-1.63477,4.01751,4.01751,0,0,1,2.66895,1.63477A4.01754,4.01754,0,0,1,11.03283,13.69516Zm0-2.78515a1.15039,1.15039,0,1,0,1.15039,1.15039A1.15239,1.15239,0,0,0,11.03283,10.91Zm0,2a.84961.84961,0,1,1,.84961-.84961A.85022.85022,0,0,1,11.03283,12.91ZM7.22473,11.8309H4.39709V2.98471H8.9469v2.294h2.252V9.66782h.30078V5.07163L9.37268,2.68491H4.09729v9.44678H7.22473Zm3.78967-6.852H9.2467V2.9946ZM7.37121,3.96469l-.54095.00153.00287.85443-.29981.001L6.53045,3.967l-.61328.00171L5.92,4.82309l-.2998.001-.00287-.85449-.5401.00146-.001-.2998,2.29395-.00635Zm-2.2915.9834.001.29981L5.506,5.24674l.00928,3.3161.55767.9375.00483,1.45947.2998-.00195L6.37286,9.528l.58429-.96808L6.9483,5.24271l.42633-.00116-.001-.29981ZM6.65735,8.4769l-.4253.70361-.417-.70068L5.80578,5.24588l.84272-.00232Zm3.69384-2.01807H7.77063V6.159h2.58056Zm0,.98243H7.77063V7.14145h2.58056Zm-2.58056.68261h2.58056v.29981H7.77063Zm2.58056,1.28272H7.77063V9.10678h2.58056ZM3.49865,12.70883H7.22571v.30078H3.19885V3.31821h.50537V3.618H3.49865Z"/></svg>