<svg id="Layer_1" data-name="Layer 1" xmlns="http://www.w3.org/2000/svg" viewBox="0 0 16 16"><defs><style>.cls-1{fill:#bfe1dd;}.cls-2{fill:#231f20;}</style></defs><title>Undocumented Access</title><rect class="cls-1" x="5.23761" y="3.05922" width="2.89362" height="3.59942" rx="1.44681"/><path class="cls-1" d="M6.38308,6.85106h.45485A2.96029,2.96029,0,0,1,9.79822,9.81135v3.64224a0,0,0,0,1,0,0H3.4228a0,0,0,0,1,0,0V9.81135A2.96029,2.96029,0,0,1,6.38308,6.85106Z"/><path class="cls-2" d="M8.2564,13.46094l-.89026.89715.58264.57941-.21094.21289-2.29-2.27734.21093-.21289.58368.58044.89-.89685.21289.21094L6.455,13.4519l.69867.69489L8.04351,13.25Zm4.1925-5.093-.378,1.4895-.02929.02832L8.74792,13.19727l.46746.46484-.21093.21289L6.71538,11.59863l.21094-.21289.46924.46662,3.32275-3.34162L12.263,8.12939,13.6939,6.68945l.21289.21143Zm-.337.10767-1.23926.30664-.80994.81408.34314.34314-.21289.21289-.34259-.34259-.36084.3628.62726.62725-.21289.2129L9.27715,10.386l-.3609.36273.34015.34015-.21289.21289-.3396-.3396-.36035.3623.62475.62476-.21289.21289-.6242-.62421-.52314.52582.92731.92218,3.264-3.28278ZM6.15679,12.13867v-.30078h-.666V8.59961H5.19v3.23828H4.1148V9.419A2.621,2.621,0,0,1,6.733,6.80029H7.79839a2.60194,2.60194,0,0,1,2.3457,1.45508l.26954-.13281A2.90157,2.90157,0,0,0,7.79839,6.50049H6.733A2.922,2.922,0,0,0,3.814,9.419v2.71972H6.15679ZM9.34234,9.39355V8.59961H9.04156v.79394ZM5.51714,4.49072V4.03418a1.74854,1.74854,0,0,1,3.49707,0v.45654a1.74854,1.74854,0,0,1-3.49707,0Zm.30078,0a1.44776,1.44776,0,1,0,2.89551,0V4.03418a1.44776,1.44776,0,1,0-2.89551,0ZM7.74761,9.57715c.24121-.11621.543-.26172.543-.605v-.2168a1.01075,1.01075,0,0,0-2.02149,0h.30079a.71.71,0,1,1,1.41992,0v.2168c0,.144-.14063.22314-.37305.33447-.22168.10742-.499.24023-.499.53809v.36621h.30078V9.84473C7.41851,9.74316,7.54253,9.67578,7.74761,9.57715Zm-.61816,1.293h.30078v-.33789H7.12945Z"/></svg>